:FULLY-SPECIFIED
:FORCE-ALL-JOINTS-BE-3DOF
:DEGREES
918
root -0.205654 14.1347 -36.2926 372.622 -27.4531 343.759
lfemur -64.2785 31.2492 -0.52777
ltibia 69.8268 0 0
lfoot -6.65416 -8.98804 0
ltoes -9.81482 0 0
rfemur 5.77257 -8.57978 12.7399
rtibia 38.6102 0 0
rfoot -22.7646 -28.2286 0
rtoes -28.347 0 0
lowerback 11.3393 -0.00297188 6.67667
upperback -1.65994 1.33281 5.64907
thorax -8.16646 0.460386 2.0308
lowerneck -3.78983 7.82055 2.40236
upperneck 4.38832 10.3462 -0.753047
head 2.20399 5.17468 -0.312312
lclavicle -2.0145e-15 3.36476e-15 0
lhumerus 10.5667 -12.485 71.6098
lradius 25.4019 0 0
lwrist -24.984 0 0
lhand -28.6001 30.8724 0
lfingers 7.12502 0 0
lthumb -1.96528 60.7961 0
rclavicle -2.0145e-15 3.36476e-15 0
rhumerus -76.7335 21.6252 -96.5209
rradius 110.55 0 0
rwrist -67.8327 0 0
rhand -11.3312 -24.3045 0
rfingers 7.12502 0 0
rthumb 14.7014 -53.7633 0
919
root -0.196398 14.1262 -36.2831 372.61 -27.4419 343.717
lfemur -64.389 31.33 -0.581711
ltibia 70.0074 0 0
lfoot -6.68685 -9.06266 0
ltoes -9.52827 0 0
rfemur 5.83212 -8.60602 12.6995
rtibia 38.6055 0 0
rfoot -22.7843 -28.1805 0
rtoes -28.4487 0 0
lowerback 11.3143 -0.0207125 6.70772
upperback -1.64873 1.31315 5.70864
thorax -8.14133 0.451113 2.08084
lowerneck -3.79315 7.82772 2.43684
upperneck 4.44989 10.3555 -0.778599
head 2.22896 5.17921 -0.323608
lclavicle -7.67241e-16 4.21773e-16 0
lhumerus 10.4587 -13.966 71.9018
lradius 25.9077 0 0
lwrist -23.6472 0 0
lhand -28.3659 30.8781 0
lfingers 7.12502 0 0
lthumb -1.73906 60.8026 0
rclavicle -7.67241e-16 4.21773e-16 0
rhumerus -76.735 21.62 -96.4887
rradius 110.542 0 0
rwrist -67.8028 0 0
rhand -11.3301 -24.3174 0
rfingers 7.12502 0 0
rthumb 14.7024 -53.776 0
920
root -0.187141 14.1177 -36.2737 372.599 -27.4307 343.674
lfemur -64.4994 31.4108 -0.635651
ltibia 70.1879 0 0
lfoot -6.71954 -9.13728 0
ltoes -9.24173 0 0
rfemur 5.89166 -8.63226 12.6591
rtibia 38.6008 0 0
rfoot -22.804 -28.1323 0
rtoes -28.5504 0 0
lowerback 11.2892 -0.0384532 6.73876
upperback -1.63752 1.29349 5.76822
thorax -8.11619 0.441841 2.13088
lowerneck -3.79646 7.83489 2.47132
upperneck 4.51147 10.3648 -0.804151
head 2.25394 5.18373 -0.334903
lclavicle 4.80012e-16 -2.52121e-15 0
lhumerus 10.3507 -15.4471 72.1939
lradius 26.4136 0 0
lwrist -22.3104 0 0
lhand -28.1317 30.8838 0
lfingers 7.12502 0 0
lthumb -1.51284 60.8091 0
rclavicle 4.80012e-16 -2.52121e-15 0
rhumerus -76.7365 21.6148 -96.4565
rradius 110.534 0 0
rwrist -67.7728 0 0
rhand -11.3291 -24.3302 0
rfingers 7.12502 0 0
rthumb 14.7034 -53.7888 0
921
root -0.177885 14.1092 -36.2642 372.588 -27.4194 343.631
lfemur -64.6099 31.4916 -0.689592
ltibia 70.3685 0 0
lfoot -6.75224 -9.21191 0
ltoes -8.95518 0 0
rfemur 5.95121 -8.6585 12.6187
rtibia 38.5961 0 0
rfoot -22.8236 -28.0841 0
rtoes -28.6521 0 0
lowerback 11.2641 -0.0561939 6.76981
upperback -1.62632 1.27383 5.82779
thorax -8.09106 0.432569 2.18092
lowerneck -3.79977 7.84207 2.50579
upperneck 4.57304 10.3741 -0.829704
head 2.27892 5.18826 -0.346199
lclavicle 1.72727e-15 -5.46419e-15 0
lhumerus 10.2426 -16.9282 72.4859
lradius 26.9195 0 0
lwrist -20.9735 0 0
lhand -27.8974 30.8896 0
lfingers 7.12502 0 0
lthumb -1.28662 60.8156 0
rclavicle 1.72727e-15 -5.46419e-15 0
rhumerus -76.7381 21.6095 -96.4243
rradius 110.526 0 0
rwrist -67.7429 0 0
rhand -11.328 -24.3431 0
rfingers 7.12502 0 0
rthumb 14.7045 -53.8015 0
922
root -0.168628 14.1007 -36.2547 372.577 -27.4082 343.589
lfemur -64.7203 31.5725 -0.743532
ltibia 70.549 0 0
lfoot -6.78493 -9.28653 0
ltoes -8.66864 0 0
rfemur 6.01076 -8.68474 12.5784
rtibia 38.5914 0 0
rfoot -22.8433 -28.0359 0
rtoes -28.7537 0 0
lowerback 11.2391 -0.0739345 6.80086
upperback -1.61511 1.25417 5.88737
thorax -8.06592 0.423296 2.23097
lowerneck -3.80309 7.84924 2.54027
upperneck 4.63462 10.3834 -0.855256
head 2.30389 5.19279 -0.357495
lclavicle 2.97452e-15 -8.40718e-15 0
lhumerus 10.1346 -18.4093 72.7779
lradius 27.4253 0 0
lwrist -19.6367 0 0
lhand -27.6632 30.8953 0
lfingers 7.12502 0 0
lthumb -1.0604 60.8221 0
rclavicle 2.97452e-15 -8.40718e-15 0
rhumerus -76.7396 21.6043 -96.3921
rradius 110.518 0 0
rwrist -67.713 0 0
rhand -11.327 -24.3559 0
rfingers 7.12502 0 0
rthumb 14.7055 -53.8143 0
923
root -0.159372 14.0922 -36.2453 372.566 -27.3969 343.546
lfemur -64.8308 31.6533 -0.797472
ltibia 70.7296 0 0
lfoot -6.81762 -9.36115 0
ltoes -8.38209 0 0
rfemur 6.07031 -8.71098 12.538
rtibia 38.5867 0 0
rfoot -22.8629 -27.9877 0
rtoes -28.8554 0 0
lowerback 11.214 -0.0916752 6.8319
upperback -1.6039 1.2345 5.94694
thorax -8.04079 0.414024 2.28101
lowerneck -3.8064 7.85642 2.57475
upperneck 4.69619 10.3927 -0.880809
head 2.32887 5.19732 -0.36879
lclavicle 4.22177e-15 -1.13502e-14 0
lhumerus 10.0266 -19.8904 73.0699
lradius 27.9312 0 0
lwrist -18.2999 0 0
lhand -27.4289 30.901 0
lfingers 7.12502 0 0
lthumb -0.834176 60.8286 0
rclavicle 4.22177e-15 -1.13502e-14 0
rhumerus -76.7412 21.5991 -96.3599
rradius 110.51 0 0
rwrist -67.683 0 0
rhand -11.3259 -24.3687 0
rfingers 7.12502 0 0
rthumb 14.7065 -53.8271 0
924
root -0.150115 14.0836 -36.2358 372.554 -27.3857 343.504
lfemur -64.9412 31.7341 -0.851413
ltibia 70.9101 0 0
lfoot -6.85031 -9.43577 0
ltoes -8.09555 0 0
rfemur 6.12985 -8.73721 12.4976
rtibia 38.5821 0 0
rfoot -22.8826 -27.9396 0
rtoes -28.9571 0 0
lowerback 11.1889 -0.109416 6.86295
upperback -1.5927 1.21484 6.00652
thorax -8.01565 0.404751 2.33105
lowerneck -3.80971 7.86359 2.60923
upperneck 4.75777 10.402 -0.906361
head 2.35385 5.20184 -0.380086
lclavicle 5.46903e-15 -1.42931e-14 0
lhumerus 9.91855 -21.3715 73.362
lradius 28.4371 0 0
lwrist -16.963 0 0
lhand -27.1947 30.9068 0
lfingers 7.12502 0 0
lthumb -0.607954 60.8351 0
rclavicle 5.46903e-15 -1.42931e-14 0
rhumerus -76.7427 21.5938 -96.3276
rradius 110.502 0 0
rwrist -67.6531 0 0
rhand -11.3249 -24.3816 0
rfingers 7.12502 0 0
rthumb 14.7075 -53.8398 0
925
root -0.140858 14.0751 -36.2264 372.543 -27.3744 343.461
lfemur -65.0517 31.8149 -0.905353
ltibia 71.0907 0 0
lfoot -6.883 -9.51039 0
ltoes -7.809 0 0
rfemur 6.1894 -8.76345 12.4572
rtibia 38.5774 0 0
rfoot -22.9022 -27.8914 0
rtoes -29.0588 0 0
lowerback 11.1638 -0.127156 6.89399
upperback -1.58149 1.19518 6.06609
thorax -7.99052 0.395479 2.38109
lowerneck -3.81302 7.87077 2.64371
upperneck 4.81934 10.4113 -0.931914
head 2.37883 5.20637 -0.391381
lclavicle 6.71628e-15 -1.72361e-14 0
lhumerus 9.81053 -22.8526 73.654
lradius 28.943 0 0
lwrist -15.6262 0 0
lhand -26.9604 30.9125 0
lfingers 7.12502 0 0
lthumb -0.381732 60.8416 0
rclavicle 6.71628e-15 -1.72361e-14 0
rhumerus -76.7443 21.5886 -96.2954
rradius 110.494 0 0
rwrist -67.6231 0 0
rhand -11.3238 -24.3944 0
rfingers 7.12502 0 0
rthumb 14.7085 -53.8526 0
